<?xml version="1.0" standalone="no"?><!DOCTYPE svg PUBLIC "-//W3C//DTD SVG 1.1//EN" "http://www.w3.org/Graphics/SVG/1.1/DTD/svg11.dtd"><svg t="1629204584569" class="icon" viewBox="0 0 1024 1024" version="1.1" xmlns="http://www.w3.org/2000/svg" p-id="822" xmlns:xlink="http://www.w3.org/1999/xlink" width="200" height="200"><defs><style type="text/css"></style></defs><path d="M511.51 458.14c20.44 0 43.54-7.58 67.31-28.7 6.33-5.64 6.9-15.33 1.27-21.67-5.64-6.33-15.33-6.9-21.67-1.27-49.06 43.65-86.24 5.73-90.36 1.21-5.65-6.27-15.31-6.82-21.62-1.19-6.33 5.63-6.89 15.33-1.25 21.66 12.25 13.76 36.44 29.96 66.32 29.96z" fill="#d4237a" p-id="823"></path><path d="M758 595.09H266c-70.96 0-126 84.24-126 156.72 0 12.71 10.3 23.01 23.02 23.01 12.72 0 23.02-10.31 23.02-23.02 0-48.79 37.64-110.69 79.96-110.69h491.99c42.31 0 79.97 61.9 79.97 110.69 0 12.71 10.31 23.02 23.02 23.02S884 764.52 884 751.81c0-72.48-55.03-156.72-126-156.72zM474.8 547.09h67.65c106.49 0 193.13-86.64 193.13-193.13V166.98c0-20.85-16.97-37.81-37.81-37.81H474.8c-106.49 0-193.13 86.64-193.13 193.13v31.66c0 106.49 86.64 193.13 193.13 193.13zM327.72 322.3c0-81.11 65.98-147.09 147.09-147.09h214.74v178.75c0 81.11-65.98 147.09-147.09 147.09h-67.65c-81.11 0-147.09-65.98-147.09-147.09V322.3z" fill="#d4237a" p-id="824"></path></svg>