<?xml version="1.0" standalone="no"?><!DOCTYPE svg PUBLIC "-//W3C//DTD SVG 1.1//EN" "http://www.w3.org/Graphics/SVG/1.1/DTD/svg11.dtd"><svg t="1629204701593" class="icon" viewBox="0 0 1024 1024" version="1.1" xmlns="http://www.w3.org/2000/svg" p-id="1614" xmlns:xlink="http://www.w3.org/1999/xlink" width="200" height="200"><defs><style type="text/css"></style></defs><path d="M510.01 590c45.3 0 85.32-23.54 109.03-59.29l-0.01-0.01c14.28-21.54 22.64-47.51 22.64-75.45v0.32c0-0.11 0.01-0.22 0.01-0.32v-94.53H596.4v94.53c0 49.33-38.75 89.47-86.39 89.47-46.93 0-85.16-38.97-86.29-87.3-0.02-0.73-0.11-1.44-0.11-2.17v-94.53h-45.27v94.53c0 0.73 0.1 1.44 0.11 2.17 0.07 4.48 0.37 8.9 0.86 13.26 0.07 0.6 0.12 1.21 0.19 1.8 0.01 0.12 0.04 0.23 0.05 0.35 1.87 14.7 6.05 28.67 12.17 41.49 2.74 5.74 5.88 11.26 9.37 16.51C424.8 566.52 464.77 590 510.01 590zM423.83 314.94h-45.49v0.51h263.33v-0.51H596.4z" fill="#d4237a" p-id="1615"></path><path d="M883.02 311.91l-61.57-115.95C815.9 185.5 805.29 179 793.78 179H232.22c-11.49 0-22.08 6.48-27.66 16.95l-61.58 115.96c-5.56 10.46-5.22 23.26 0.88 33.41 3.92 6.53 9.86 11.08 16.64 13.47v96.47c0 21.8 5.2 42.34 14.22 60.58v266.34c0 29.12 23.7 52.82 52.82 52.82H787.3c29.12 0 52.82-23.7 52.82-52.82V525.66c12.36-20.52 19.62-44.58 19.62-70.4v-95.11c9.2-1.33 17.4-6.5 22.42-14.83 6.07-10.14 6.41-22.95 0.86-33.41z m-88.18 470.27c0 4.16-3.39 7.55-7.54 7.55H227.54c-4.16 0-7.55-3.38-7.55-7.55V567.82C240.74 581.8 265.52 590 292.17 590c45.24 0 85.21-23.48 108.92-59.15a135.21 135.21 0 0 1-9.37-16.52 136.19 136.19 0 0 1-12.17-41.49c-0.01-0.12-0.04-0.23-0.05-0.35-0.07-0.6-0.13-1.2-0.19-1.8-0.49-4.36-0.79-8.78-0.86-13.25-1.13 48.33-39.35 87.3-86.29 87.3-30.15 0-56.71-16.11-72.17-40.42V367.79c0-3.32 2.19-6.06 5.18-7.07h198.44v94.53c0 0.73 0.09 1.44 0.11 2.17 0.01-0.73 0.11-1.44 0.11-2.17v-94.53h365.83c2.98 1 5.18 3.74 5.18 7.07v144.15c-15.86 20-39.9 32.78-66.78 32.78-47.54 0-86.22-39.96-86.39-89.15v-0.32c0 27.94-8.36 53.91-22.64 75.45l0.01 0.01c23.7 35.75 63.73 59.29 109.03 59.29 24.39 0 47.17-6.94 66.78-18.82v211zM641.67 314.94v0.51H378.34v-0.51h-185.7l48.14-90.67h544.44l48.14 90.67H641.67z" fill="#d4237a" p-id="1616"></path></svg>